<?xml version="1.0" encoding="iso-8859-1"?>
<!-- Generator: Adobe Illustrator 19.0.0, SVG Export Plug-In . SVG Version: 6.00 Build 0)  -->
<svg version="1.1" id="Layer_1" xmlns="http://www.w3.org/2000/svg" xmlns:xlink="http://www.w3.org/1999/xlink" x="0px" y="0px"
	 viewBox="0 0 502 502" style="enable-background:new 0 0 502 502;" xml:space="preserve">
<g>
	<path style="fill:#C1272D;" d="M251,10C117.899,10,10,117.899,10,251s107.899,241,241,241s241-107.899,241-241S384.101,10,251,10z
		 M251,279.8c-15.906,0-28.8-12.894-28.8-28.8s12.894-28.8,28.8-28.8s28.8,12.894,28.8,28.8S266.906,279.8,251,279.8z"/>
	<g>
		<path d="M428.484,73.516C381.076,26.108,318.044,0,251,0S120.924,26.108,73.516,73.516S0,183.956,0,251
			s26.108,130.076,73.516,177.484S183.956,502,251,502s130.076-26.108,177.484-73.516S502,318.044,502,251
			S475.892,120.924,428.484,73.516z M251,482C123.626,482,20,378.374,20,251S123.626,20,251,20s231,103.626,231,231
			S378.374,482,251,482z"/>
		<path d="M251,289.8c21.394,0,38.8-17.406,38.8-38.8s-17.406-38.8-38.8-38.8s-38.8,17.406-38.8,38.8S229.606,289.8,251,289.8z
			 M251,232.2c10.366,0,18.8,8.434,18.8,18.8s-8.434,18.8-18.8,18.8s-18.8-8.434-18.8-18.8S240.634,232.2,251,232.2z"/>
		<path d="M251,45c-18.559,0-36.961,2.47-54.694,7.342c-5.326,1.463-8.457,6.966-6.994,12.292c1.462,5.326,6.967,8.457,12.292,6.994
			C217.611,67.23,234.231,65,251,65c102.561,0,186,83.439,186,186s-83.439,186-186,186S65,353.561,65,251
			c0-21.658,3.686-42.871,10.956-63.051c1.872-5.196-0.823-10.925-6.019-12.797c-5.194-1.874-10.925,0.822-12.797,6.019
			C49.084,203.531,45,227.025,45,251c0,113.589,92.411,206,206,206s206-92.411,206-206S364.589,45,251,45z"/>
		<path d="M92.89,134.717c1.858,1.521,4.099,2.261,6.326,2.261c2.896,0,5.769-1.252,7.746-3.668
			c10.96-13.397,23.715-25.2,37.91-35.081c4.533-3.155,5.65-9.388,2.495-13.92s-9.388-5.648-13.92-2.495
			c-15.713,10.938-29.832,24.002-41.963,38.832C87.985,124.919,88.615,131.22,92.89,134.717z"/>
		<path d="M178,251c0,40.252,32.748,73,73,73s73-32.748,73-73s-32.748-73-73-73S178,210.748,178,251z M251,198
			c29.224,0,53,23.776,53,53s-23.776,53-53,53s-53-23.776-53-53S221.776,198,251,198z"/>
		<path d="M232,150V98c0-5.523-4.477-10-10-10s-10,4.477-10,10v52c0,5.523,4.477,10,10,10S232,155.523,232,150z"/>
		<path d="M245,150c0,5.523,4.477,10,10,10h13.667C282.635,160,294,148.635,294,134.667v-2.333C294,118.365,282.635,107,268.667,107
			H265v-9c0-5.523-4.477-10-10-10s-10,4.477-10,10V150z M268.667,127c2.941,0,5.333,2.393,5.333,5.333v2.333
			c0,2.941-2.393,5.333-5.333,5.333H265v-13h3.667V127z"/>
	</g>
</g>
<g>
</g>
<g>
</g>
<g>
</g>
<g>
</g>
<g>
</g>
<g>
</g>
<g>
</g>
<g>
</g>
<g>
</g>
<g>
</g>
<g>
</g>
<g>
</g>
<g>
</g>
<g>
</g>
<g>
</g>
</svg>
